<svg xmlns="http://www.w3.org/2000/svg" width="10" height="9.423" viewBox="0 0 10 9.423"><path d="M7.593,9.344,5.24,7.653a.413.413,0,0,0-.481,0L2.407,9.344a.405.405,0,0,1-.239.079.4.4,0,0,1-.388-.52l.9-2.75a.392.392,0,0,0-.146-.442l-2.37-1.7a.4.4,0,0,1,.24-.718h2.92a.405.405,0,0,0,.387-.276l.9-2.738a.409.409,0,0,1,.774,0l.9,2.738a.405.405,0,0,0,.387.276h2.92a.4.4,0,0,1,.24.718l-2.37,1.7a.392.392,0,0,0-.146.442l.9,2.75a.4.4,0,0,1-.388.52A.405.405,0,0,1,7.593,9.344Z" transform="translate(0)" fill="#5abd8c"/></svg>