<svg xmlns="http://www.w3.org/2000/svg" xmlns:xlink="http://www.w3.org/1999/xlink" width="13.43" height="9.876" viewBox="0 0 13.43 9.876"><defs><clipPath id="a"><rect width="13.43" height="9.876" fill="none"/></clipPath></defs><g clip-path="url(#a)"><g transform="translate(1921.638 -2514.512) rotate(93)"><path d="M.805,0A.805.805,0,0,1,1.61.805V12.077a.805.805,0,1,1-1.61,0V.805A.805.805,0,0,1,.805,0Z" transform="matrix(0.998, 0.07, -0.07, 0.998, 2612.51, 1773.959)" fill="rgba(255,255,255,0.5)"/><path d="M.806,0a.806.806,0,0,1,.8.807v11.3a.805.805,0,1,1-1.61,0V.807A.806.806,0,0,1,.806,0Z" transform="translate(2615.496 1774.014) rotate(-2)" fill="rgba(255,255,255,0.5)"/><rect width="1.61" height="12.939" rx="0.805" transform="translate(2619.211 1773.972)" fill="rgba(255,255,255,0.5)"/></g></g></svg>